<svg version="1.1" id="Layer_1" xmlns="http://www.w3.org/2000/svg" xmlns:xlink="http://www.w3.org/1999/xlink" x="0px" y="0px" viewBox="0 0 500 500" style="width: 186px;" xml:space="preserve" data-imageid="advertising-5-7" imageName="Advertising 5" class="illustrations_image">
<style type="text/css">
	.st0_advertising-5-7{fill:#68E1FD;}
	.st1_advertising-5-7{fill:#093F68;}
	.st2_advertising-5-7{fill:#FFFFFF;}
	.st3_advertising-5-7{fill:#70CC40;}
	.st4_advertising-5-7{fill:#F56132;}
	.st5_advertising-5-7{fill:#DFEAEF;}
	.st6_advertising-5-7{fill:#FFBC0E;}
</style>
<g id="device_advertising-5-7">
	<path class="st0_advertising-5-7 targetColor" d="M49.7,358h400.5l0,0v15c0,9.8-7.9,17.7-17.7,17.7H67.4c-9.8,0-17.7-7.9-17.7-17.7V358L49.7,358z" style="fill: rgb(0, 0, 0);"/>
	<path class="st1_advertising-5-7" d="M431.5,393.1H68.5c-11.7,0-21.2-9.5-21.2-21.2V358c0-1.3,1.1-2.4,2.4-2.4h400.5c1.3,0,2.4,1.1,2.4,2.4v13.9&#10;&#9;&#9;C452.6,383.6,443.1,393.1,431.5,393.1z M52.1,360.3v11.6c0,9.1,7.4,16.4,16.4,16.4h362.9c9.1,0,16.4-7.4,16.4-16.4v-11.6H52.1z"/>
	<path class="st0_advertising-5-7 targetColor" d="M83.8,131h332.5c3.9,0,7,3.1,7,7v220l0,0H76.7l0,0V138C76.7,134.1,79.9,131,83.8,131&#10;&#9;&#9;C83.7,131,83.7,131,83.8,131z" style="fill: rgb(0, 0, 0);"/>
	<path class="st1_advertising-5-7" d="M423.3,360.3H76.7c-1.3,0-2.3-1-2.4-2.3V147.7c0-10.5,8.5-19.1,19.1-19.1h313.2c10.5,0,19.1,8.5,19.1,19.1V358&#10;&#9;&#9;C425.6,359.3,424.6,360.3,423.3,360.3z M79.1,355.6h341.8V147.7c0-7.9-6.4-14.3-14.3-14.3H93.4c-7.9,0-14.3,6.4-14.3,14.3V355.6z"/>
	<rect x="102.6" y="157.7" class="st2_advertising-5-7" width="294.7" height="174.9"/>
	<path class="st1_advertising-5-7" d="M397.4,335H102.6c-1.3,0-2.4-1.1-2.4-2.4v-175c0-1.3,1.1-2.4,2.4-2.4h294.7c1.3,0,2.4,1.1,2.4,2.4v174.9&#10;&#9;&#9;C399.8,333.9,398.7,335,397.4,335C397.4,335,397.4,335,397.4,335z M105,330.2h290V160.1H105V330.2z"/>
	<path class="st1_advertising-5-7" d="M219.5,358h61l0,0v4.2c0,5.7-4.6,10.4-10.4,10.4l0,0h-40.3c-5.7,0-10.4-4.6-10.4-10.4l0,0V358L219.5,358z"/>
	<path class="st1_advertising-5-7" d="M269.4,374.9h-38.8c-7.4,0-13.5-6-13.5-13.5V358c0-1.3,1.1-2.4,2.4-2.4h61c1.3,0,2.4,1.1,2.4,2.4v3.5&#10;&#9;&#9;C282.8,368.9,276.8,374.9,269.4,374.9z M221.9,360.3v1.1c0,4.8,3.9,8.7,8.8,8.8h38.8c4.8,0,8.7-3.9,8.8-8.8v-1.1H221.9z"/>
	<circle class="st0_advertising-5-7 targetColor" cx="250" cy="142.6" r="2.3" style="fill: rgb(0, 0, 0);"/>
	<path class="st1_advertising-5-7" d="M250,147.3c-2.6,0-4.7-2.1-4.7-4.7s2.1-4.7,4.7-4.7s4.7,2.1,4.7,4.7c0,0,0,0,0,0&#10;&#9;&#9;C254.7,145.2,252.6,147.3,250,147.3z M250,142.6h2.3H250z"/>
</g>
<g id="image_advertising-5-7">
	<path class="st3_advertising-5-7" d="M239.8,221.2h126.8c7.6,0,13.8,6.2,13.8,13.8v68.3c0,7.6-6.2,13.8-13.8,13.8H239.8c-7.6,0-13.8-6.2-13.8-13.8&#10;&#9;&#9;V235C226,227.4,232.2,221.2,239.8,221.2z"/>
	<path class="st1_advertising-5-7" d="M366.6,319.5H239.9c-9,0-16.2-7.3-16.3-16.2v-68.2c0-9,7.3-16.2,16.3-16.2h126.7c9,0,16.2,7.3,16.3,16.2v68.2&#10;&#9;&#9;C382.8,312.2,375.6,319.5,366.6,319.5z M239.9,223.6c-6.4,0-11.5,5.2-11.5,11.5v68.2c0,6.4,5.2,11.5,11.5,11.5h126.7&#10;&#9;&#9;c6.4,0,11.5-5.2,11.5-11.5v-68.2c0-6.4-5.2-11.5-11.5-11.5H239.9z"/>
	<path class="st1_advertising-5-7" d="M226,297.4c-1.3,0-2.4-1-2.4-2.4c0-0.8,0.3-1.5,1-1.9l58.8-44.2c0.9-0.7,2.1-0.6,3,0.1l51.4,44.2&#10;&#9;&#9;c1,0.8,1.3,2.3,0.5,3.3c-0.8,1-2.3,1.3-3.3,0.5c-0.1-0.1-0.2-0.1-0.2-0.2l-50-43l-57.3,43.1C227,297.2,226.5,297.4,226,297.4z"/>
	<path class="st1_advertising-5-7" d="M380.5,285.9c-0.6,0-1.1-0.2-1.5-0.6l-28.6-24.1l-26.4,22.2c-1,0.8-2.5,0.7-3.3-0.3s-0.7-2.5,0.3-3.3&#10;&#9;&#9;l27.9-23.5c0.9-0.7,2.2-0.7,3,0l30.1,25.3c1,0.8,1.1,2.3,0.3,3.3C381.8,285.6,381.2,285.9,380.5,285.9L380.5,285.9z"/>
	<path class="st1_advertising-5-7" d="M331,257.9c-6.1,0-11-4.9-11-11s4.9-11,11-11s11,4.9,11,11S337.1,257.9,331,257.9z M331,240.6&#10;&#9;&#9;c-3.5,0-6.3,2.8-6.3,6.3s2.8,6.3,6.3,6.3c3.5,0,6.3-2.8,6.3-6.3c0,0,0,0,0,0C337.3,243.4,334.5,240.6,331,240.6z"/>
</g>
<g id="video_advertising-5-7">
	<path class="st4_advertising-5-7" d="M71.2,178.1h121.1c6.6,0,11.9,5.3,11.9,11.9v86.2c0,6.6-5.3,11.9-11.9,11.9H71.2c-6.6,0-11.9-5.3-11.9-11.9&#10;&#9;&#9;V190C59.3,183.4,64.6,178.1,71.2,178.1z"/>
	<path class="st1_advertising-5-7" d="M192.5,290.4H71.1c-7.8,0-14.1-6.3-14.1-14.1v-86.5c0-7.8,6.3-14.1,14.1-14.1h121.4c7.8,0,14.1,6.3,14.1,14.1&#10;&#9;&#9;v86.5C206.6,284.1,200.3,290.4,192.5,290.4z M71.1,180.4c-5.2,0-9.4,4.2-9.4,9.4v86.5c0,5.2,4.2,9.4,9.4,9.4h121.4&#10;&#9;&#9;c5.2,0,9.4-4.2,9.4-9.4v-86.5c0-5.2-4.2-9.4-9.4-9.4L71.1,180.4z"/>
	<polygon class="st2_advertising-5-7" points="162.6,233.1 111,264.8 111,201.3 &#9;"/>
	<path class="st1_advertising-5-7" d="M111,267.2c-0.4,0-0.8-0.1-1.2-0.3c-0.7-0.4-1.2-1.2-1.2-2.1v-63.5c0-1.3,1.1-2.4,2.4-2.4&#10;&#9;&#9;c0.4,0,0.9,0.1,1.2,0.4l51.6,31.7c1.1,0.7,1.4,2.2,0.7,3.3c-0.2,0.3-0.4,0.5-0.7,0.7l-51.6,31.7C111.9,267,111.4,267.1,111,267.2z&#10;&#9;&#9; M113.4,205.6v55l44.7-27.5L113.4,205.6z"/>
</g>
<g id="speech-bubble_advertising-5-7">
	<path class="st2_advertising-5-7" d="M296.2,109.3h-68c-3.9,0-7,3.1-7,7v46.1c0,3.9,3.1,7,7,7h9v15.5l12.2-15.5h46.8c3.9,0,7-3.1,7-7v-46.2&#10;&#9;&#9;C303.2,112.4,300.1,109.3,296.2,109.3z"/>
	<path class="st1_advertising-5-7" d="M237.3,187.2c-0.3,0-0.5,0-0.8-0.1c-1-0.3-1.6-1.2-1.6-2.2v-13.1h-6.7c-5.2,0-9.3-4.2-9.4-9.4v-46.1&#10;&#9;&#9;c0-5.2,4.2-9.3,9.4-9.3h68c5.2,0,9.3,4.2,9.4,9.3v46.1c0,5.2-4.2,9.4-9.4,9.4h-45.6l-11.5,14.5C238.7,186.9,238,187.2,237.3,187.2z&#10;&#9;&#9; M228.3,111.7c-2.5,0-4.6,2.1-4.6,4.6v46.1c0,2.5,2.1,4.6,4.6,4.6h9c1.3,0,2.4,1.1,2.4,2.4v8.6l8-10.1c0.4-0.6,1.1-0.9,1.9-0.9&#10;&#9;&#9;h46.8c2.5,0,4.6-2.1,4.6-4.6v-46.1c0-2.5-2.1-4.6-4.6-4.6H228.3z"/>
	<path class="st5_advertising-5-7" d="M286.1,131.9h-47.6c-1.3,0.1-2.4-0.9-2.5-2.2s0.9-2.4,2.2-2.5c0.1,0,0.2,0,0.3,0h47.6c1.3,0.1,2.3,1.2,2.2,2.5&#10;&#9;&#9;C288.2,130.9,287.3,131.8,286.1,131.9z"/>
	<path class="st5_advertising-5-7" d="M273.2,148.9h-34.7c-1.3,0.1-2.4-0.9-2.5-2.2s0.9-2.4,2.2-2.5c0.1,0,0.2,0,0.3,0h34.7c1.3,0.1,2.3,1.2,2.2,2.5&#10;&#9;&#9;C275.3,147.9,274.4,148.9,273.2,148.9z"/>
</g>
<g id="music_advertising-5-7">
	<path class="st6_advertising-5-7" d="M334.3,117.4h93.2c5.5,0,10,4.5,10,10v68.5c0,5.5-4.5,10-10,10h-93.2c-5.5,0-10-4.5-10-10v-68.5&#10;&#9;&#9;C324.3,121.9,328.8,117.4,334.3,117.4z"/>
	<path class="st1_advertising-5-7" d="M426.5,208.2h-91.3c-7.3,0-13.3-6-13.3-13.3v-66.6c0-7.3,6-13.3,13.3-13.3h91.3c7.3,0,13.3,6,13.3,13.3v66.6&#10;&#9;&#9;C439.8,202.3,433.9,208.2,426.5,208.2z M335.2,119.8c-4.7,0-8.6,3.8-8.6,8.6v66.6c0,4.7,3.8,8.6,8.6,8.6h91.3&#10;&#9;&#9;c4.7,0,8.6-3.8,8.6-8.6v-66.6c0-4.7-3.8-8.6-8.6-8.6H335.2z"/>
	<g id="SBwUh1_advertising-5-7">
		<path class="st2_advertising-5-7" d="M397,167.4v-17.8c0-1.6-0.8-2.2-2.3-1.8c-2.1,0.6-4.2,1.3-6.3,1.9l-8.9,2.8c-2.3,0.7-4.7,1.4-7,2.2&#10;&#9;&#9;&#9;c-0.7,0.3-1.3,0.7-1.8,1.1c-0.6,0.6-0.9,1.4-0.9,2.3c0,7-0.1,14.1,0,21.1c0.2,3.7-1.7,7.2-4.9,9.1c-3.3,2.2-7.3,2.8-11.1,1.6&#10;&#9;&#9;&#9;c-3.6-0.9-5.8-4.6-4.8-8.2c0.1-0.5,0.3-1,0.6-1.5c1.3-2.6,3.4-4.6,6.1-5.8c2-0.9,4.1-1.3,6.2-1.3c1.2,0,2.4,0.3,3.5,0.8v-0.6&#10;&#9;&#9;&#9;c0-8.4,0-16.8,0-25.2c0-3.6,2.3-6.7,5.7-7.7c5.3-1.6,10.6-3.2,15.9-4.9c2.9-0.9,5.7-1.8,8.6-2.6c1-0.4,2.1-0.4,3.1-0.2&#10;&#9;&#9;&#9;c1.5,0.4,2.5,1.6,2.8,3.1c0,0.4,0.1,0.8,0.1,1.3c0,12,0,24,0,36c0,2.8-1.2,5.4-3.4,7.2c-2.8,2.5-6.6,3.7-10.4,3.3&#10;&#9;&#9;&#9;c-2-0.1-4-0.9-5.5-2.2c-1.7-1.5-2.5-3.8-2.1-6c0.4-2.4,1.8-4.6,3.8-6c2.8-2.2,6.4-3.2,10-2.8c0.9,0.2,1.8,0.4,2.7,0.6L397,167.4z"/>
	</g>
</g>
</svg>